<svg
   width="21.021349mm"
   height="23.420828mm"
   viewBox="0 0 21.021349 23.420827"
   version="1.1"
   id="svg1"
   xmlns="http://www.w3.org/2000/svg"
   xmlns:svg="http://www.w3.org/2000/svg">
  <defs
     id="defs1">
    <clipPath
       clipPathUnits="userSpaceOnUse"
       id="clipPath2">
      <path
         d="m 126.168,130.349 h 28.713 v 58.176 h -28.713 z"
         transform="translate(-138.33591,-179.94191)"
         id="path2" />
    </clipPath>
    <clipPath
       clipPathUnits="userSpaceOnUse"
       id="clipPath4">
      <path
         d="m 126.168,130.349 h 28.713 v 58.176 h -28.713 z"
         transform="translate(-154.59471,-186.9653)"
         id="path4" />
    </clipPath>
  </defs>
  <g
     id="layer1"
     transform="translate(-46.0375,-90.255989)">
    <path
       id="path1"
       d="m 0,0 c 0,0 -0.121,-21.218 -0.151,-26.804 0.047,0.013 0.095,0.017 0.143,0.033 2.833,0.835 4.865,2.118 5.112,5.839 C 5.101,-20.947 5.284,0 5.284,0 Z m -0.157,-28.148 c 0,0 0.002,0.496 0.006,1.344 -2.789,-0.766 -5.673,0.142 -7.481,2.126 l -3.782,-5.172 c 1.837,-2.018 3.494,-3.095 6.498,-2.822 1.228,0.084 4.547,1.347 4.759,4.524 z"
       style="fill:none;stroke:#000000;stroke-width:1.5;stroke-linecap:butt;stroke-linejoin:miter;stroke-miterlimit:4;stroke-dasharray:none;stroke-opacity:1"
       transform="matrix(0.35277776,0,0,-0.35277776,55.886318,94.838343)"
       clip-path="url(#clipPath2)" />
    <path
       id="path3"
       d="m 0,0 c -2.174,1.222 -4.94,1.349 -7.291,0.075 -2.58,-1.397 -3.748,-3.427 -3.684,-6.708"
       style="fill:none;stroke:#000000;stroke-width:1.5;stroke-linecap:butt;stroke-linejoin:miter;stroke-miterlimit:4;stroke-dasharray:none;stroke-opacity:1"
       transform="matrix(0.35277776,0,0,-0.35277776,61.622061,92.360644)"
       clip-path="url(#clipPath4)" />
    <path
       id="path5"
       d="m 52.160101,111.63025 h 7.408333"
       style="fill:none;stroke:#231f20;stroke-width:0.352778;stroke-linecap:butt;stroke-linejoin:miter;stroke-miterlimit:4;stroke-dasharray:none;stroke-opacity:1" />
  </g>
  ><title
     id="title1">Jeroen Jeuris</title>
</svg>
