<?xml version="1.0" encoding="UTF-8" standalone="no"?>
<!-- Created with Inkscape (http://www.inkscape.org/) -->

<svg
   width="196.9313mm"
   height="52.81115mm"
   viewBox="0 0 196.9313 52.81115"
   version="1.1"
   id="svg1"
   xml:space="preserve"
   xmlns:xlink="http://www.w3.org/1999/xlink"
   xmlns="http://www.w3.org/2000/svg"
   xmlns:svg="http://www.w3.org/2000/svg"><defs
     id="defs1"><linearGradient
       id="linearGradient10"><stop
         style="stop-color:#f9fdfd;stop-opacity:1;"
         offset="0"
         id="stop9" /><stop
         style="stop-color:#f9fdfd;stop-opacity:1;"
         offset="1"
         id="stop10" /></linearGradient><linearGradient
       id="swatch6"><stop
         style="stop-color:#254559;stop-opacity:1;"
         offset="0"
         id="stop7" /></linearGradient><linearGradient
       xlink:href="#linearGradient10"
       id="linearGradient12"
       gradientUnits="userSpaceOnUse"
       gradientTransform="matrix(0.67023512,0,0,0.67023512,-291.46136,188.79001)"
       x1="114.00723"
       y1="51.158455"
       x2="171.15723"
       y2="51.158455"
       spreadMethod="pad" /></defs><g
     id="layer1"
     transform="translate(217.66093,-199.39914)"><path
       d="m -215.0497,215.62712 c 12.53153,-8.63021 25.29951,-12.17687 38.30394,-10.63998 -0.23645,13.00442 -5.26089,25.18129 -15.07331,36.5306 -11.11287,-6.26576 -18.85642,-14.89597 -23.23063,-25.89062 z"
       style="fill:url(#linearGradient12);stroke-width:0.177333"
       id="path1-2-1-7" /><g
       id="text19-8-7-6"
       style="font-size:50.8px;font-family:'Malgun Gothic';-inkscape-font-specification:'Malgun Gothic';fill:#254559;stroke-width:0.365001"
       aria-label="3volve"><path
         style="font-weight:500;font-size:41.275px;font-family:Exo;-inkscape-font-specification:'Exo Medium';fill:#f9fdfd;stroke-width:0.365"
         d="m -158.73272,242.55363 q -3.302,0 -6.19125,-0.1651 -2.84797,-0.1651 -5.03555,-0.45402 v -3.26073 h 9.7409 q 1.77483,0 3.05435,-0.3302 1.27953,-0.37147 1.9812,-1.23825 0.74295,-0.86677 0.74295,-2.51777 v -1.77483 q 0,-1.4859 -0.70167,-2.3114 -0.70168,-0.86677 -1.8161,-1.23825 -1.11443,-0.37147 -2.35268,-0.41275 l -7.71842,-0.3302 v -3.09562 l 7.55332,-0.3302 q 2.10503,-0.12383 3.38455,-0.90805 1.27953,-0.78423 1.27953,-2.68288 v -1.73355 q 0,-2.02247 -1.40335,-3.09562 -1.36208,-1.11443 -4.25133,-1.11443 h -8.5852 v -3.26072 q 2.02248,-0.28893 4.58153,-0.4953 2.55905,-0.20638 5.6134,-0.1651 2.72415,0 4.49897,0.90805 1.8161,0.86677 2.72415,2.51777 0.90805,1.60973 0.90805,3.83858 v 2.4765 q 0,1.36207 -0.41275,2.35267 -0.37147,0.94933 -1.03187,1.651 -0.61913,0.6604 -1.36208,1.03188 -0.74295,0.37147 -1.40335,0.57785 0.74295,0.1651 1.52718,0.6604 0.8255,0.45402 1.52717,1.23825 0.74295,0.74295 1.19698,1.85737 0.45402,1.11443 0.45402,2.55905 v 1.9812 q 0,3.54965 -2.27012,5.40703 -2.22885,1.85737 -6.23253,1.85737 z"
         id="path10" /><path
         style="font-weight:500;font-family:Exo;-inkscape-font-specification:'Exo Medium';fill:#f9fdfd;stroke-width:0.365"
         d="m -136.91094,242.30598 -9.8552,-27.178 h 5.2324 l 7.6708,22.4536 7.8232,-22.4536 h 5.2324 l -10.2108,27.178 z m 30.58158,0.3048 q -3.0988,0 -5.3848,-0.6604 -2.2352,-0.6604 -3.7084,-2.1844 -1.4732,-1.5748 -2.18439,-4.2672 -0.7112,-2.6924 -0.7112,-6.8072 0,-4.2672 0.7112,-6.9596 0.71119,-2.7432 2.18439,-4.2672 1.4732,-1.524 3.7592,-2.0828 2.286,-0.6096 5.334,-0.6096 3.048,0 5.334,0.6096 2.286005,0.6096 3.759205,2.1336 1.4732,1.524 2.1844,4.2672 0.7112,2.6924 0.7112,6.9088 0,4.1656 -0.7112,6.9088 -0.7112,2.6924 -2.1844,4.2164 -1.4224,1.524 -3.708405,2.1844 -2.286,0.6096 -5.3848,0.6096 z m 0,-4.1656 q 1.6764,0 2.9464,-0.3048 1.3208,-0.3048 2.1844,-1.27 0.8636,-1.016 1.320805,-2.9972 0.4572,-1.9812 0.4572,-5.2324 0,-3.2512 -0.4572,-5.1816 -0.457205,-1.9812 -1.320805,-2.9464 -0.8636,-0.9652 -2.1844,-1.27 -1.27,-0.3556 -2.9464,-0.3556 -1.7272,0 -3.048,0.3556 -1.27,0.3048 -2.1336,1.27 -0.8128,0.9652 -1.27,2.9464 -0.4064,1.9304 -0.4064,5.1816 0,3.2512 0.4064,5.2324 0.4572,1.9812 1.27,2.9972 0.8636,0.9652 2.1336,1.27 1.3208,0.3048 3.048,0.3048 z m 25.755616,3.9116 q -2.4892,0 -4.2164,-0.8636 -1.6764,-0.8636 -2.54,-2.7432 -0.8128,-1.9304 -0.8128,-5.1816 v -30.02279 h 5.08 v 29.36239 q 0,2.1336 0.4064,3.302 0.4572,1.1176 1.2192,1.5748 0.8128,0.4572 1.8796,0.6096 l 2.54,0.3048 v 3.6576 z m 14.833559,-0.0508 -9.855199,-27.178 h 5.2324 l 7.670799,22.4536 7.8232,-22.4536 h 5.2324 l -10.2108,27.178 z m 30.225983,0.3048 q -4.318,0 -6.9088,-1.27 -2.54,-1.27 -3.6576,-4.2672 -1.0668,-3.048 -1.0668,-8.382 0,-5.4356 1.0668,-8.4328 1.1176,-3.048 3.6576,-4.2672 2.54,-1.2192 6.858,-1.2192 3.7592,0 6.0452,0.8128 2.3368,0.762 3.4036,2.794 1.1176,1.9812 1.1176,5.5372 0,2.4892 -1.016,3.9624 -0.9652,1.4732 -2.794,2.1336 -1.778,0.6604 -4.2672,0.6604 h -8.9916 q 0.0508,2.9464 0.6604,4.7244 0.6604,1.7272 2.286,2.54 1.6764,0.762 4.8768,0.762 h 8.4836 v 3.048 q -2.1844,0.3048 -4.4704,0.5588 -2.286,0.3048 -5.2832,0.3048 z m -6.604,-15.1384 h 8.5852 q 2.032,0 2.9972,-0.762 0.9652,-0.762 0.9652,-2.794 0,-2.032 -0.6096,-3.2004 -0.5588,-1.1684 -1.8796,-1.6764 -1.3208,-0.508 -3.5052,-0.508 -2.4892,0 -3.9624,0.762 -1.4224,0.762 -2.032,2.6924 -0.5588,1.9304 -0.5588,5.4864 z"
         id="path11" /></g></g></svg>
