<?xml version="1.0" encoding="UTF-8" standalone="no"?>
<!-- Created with Inkscape (http://www.inkscape.org/) -->

<svg
   width="197.16568mm"
   height="48.658218mm"
   viewBox="0 0 197.16568 48.658219"
   version="1.1"
   id="svg1"
   xml:space="preserve"
   xmlns:xlink="http://www.w3.org/1999/xlink"
   xmlns="http://www.w3.org/2000/svg"
   xmlns:svg="http://www.w3.org/2000/svg"><defs
     id="defs1"><linearGradient
       id="linearGradient2"><stop
         style="stop-color:#254559;stop-opacity:1;"
         offset="0"
         id="stop1" /><stop
         style="stop-color:#4b95a6;stop-opacity:1;"
         offset="1"
         id="stop2" /></linearGradient><linearGradient
       id="swatch6"><stop
         style="stop-color:#254559;stop-opacity:1;"
         offset="0"
         id="stop7" /></linearGradient><linearGradient
       xlink:href="#linearGradient2"
       id="linearGradient26"
       gradientUnits="userSpaceOnUse"
       gradientTransform="matrix(0.67023512,0,0,0.67023512,-73.440234,-10.308081)"
       x1="114.00723"
       y1="51.158455"
       x2="171.15723"
       y2="51.158455"
       spreadMethod="pad" /></defs><path
     d="M 2.9714261,16.529029 C 15.502956,7.8988191 28.270936,4.3521591 41.275366,5.8890491 41.038916,18.893469 36.014476,31.070339 26.202056,42.419649 15.089186,36.153889 7.3456356,27.523679 2.9714261,16.529029 Z"
     style="fill:url(#linearGradient26);stroke-width:0.177333"
     id="path1-2-1" /><g
     id="layer1"
     transform="translate(-232.46778,-209.96837)"><g
       id="text19-8-7"
       style="font-size:50.8px;font-family:'Malgun Gothic';-inkscape-font-specification:'Malgun Gothic';fill:#254559;stroke-width:0.365001"
       aria-label="3volve"><path
         style="font-weight:500;font-size:41.275px;font-family:Exo;-inkscape-font-specification:'Exo Medium';fill:#4b95a6;stroke-width:0.365"
         d="m 291.75619,253.42392 q -3.302,0 -6.19125,-0.1651 -2.84798,-0.1651 -5.03555,-0.45403 v -3.26072 h 9.7409 q 1.77482,0 3.05435,-0.3302 1.27952,-0.37148 1.9812,-1.23825 0.74295,-0.86678 0.74295,-2.51778 v -1.77482 q 0,-1.4859 -0.70168,-2.3114 -0.70167,-0.86678 -1.8161,-1.23825 -1.11442,-0.37148 -2.35267,-0.41275 l -7.71843,-0.3302 v -3.09563 l 7.55333,-0.3302 q 2.10502,-0.12382 3.38455,-0.90805 1.27952,-0.78422 1.27952,-2.68287 v -1.73355 q 0,-2.02248 -1.40335,-3.09563 -1.36207,-1.11442 -4.25132,-1.11442 h -8.5852 v -3.26073 q 2.02247,-0.28892 4.58152,-0.4953 2.55905,-0.20637 5.6134,-0.1651 2.72415,0 4.49898,0.90805 1.8161,0.86678 2.72415,2.51778 0.90805,1.60972 0.90805,3.83857 v 2.4765 q 0,1.36208 -0.41275,2.35268 -0.37148,0.94932 -1.03188,1.651 -0.61912,0.6604 -1.36207,1.03187 -0.74295,0.37148 -1.40335,0.57785 0.74295,0.1651 1.52717,0.6604 0.8255,0.45403 1.52718,1.23825 0.74295,0.74295 1.19697,1.85738 0.45403,1.11442 0.45403,2.55905 v 1.9812 q 0,3.54965 -2.27013,5.40702 -2.22885,1.85738 -6.23252,1.85738 z"
         id="path15" /><path
         style="font-weight:500;font-family:Exo;-inkscape-font-specification:'Exo Medium';stroke-width:0.365"
         d="m 313.57797,253.17627 -9.8552,-27.178 h 5.2324 l 7.6708,22.4536 7.8232,-22.4536 h 5.2324 l -10.2108,27.178 z m 30.58158,0.3048 q -3.0988,0 -5.3848,-0.6604 -2.2352,-0.6604 -3.7084,-2.1844 -1.4732,-1.5748 -2.1844,-4.2672 -0.7112,-2.6924 -0.7112,-6.8072 0,-4.2672 0.7112,-6.9596 0.7112,-2.7432 2.1844,-4.2672 1.4732,-1.524 3.7592,-2.0828 2.286,-0.6096 5.334,-0.6096 3.048,0 5.334,0.6096 2.286,0.6096 3.7592,2.1336 1.4732,1.524 2.1844,4.2672 0.7112,2.6924 0.7112,6.9088 0,4.1656 -0.7112,6.9088 -0.7112,2.6924 -2.1844,4.2164 -1.4224,1.524 -3.7084,2.1844 -2.286,0.6096 -5.3848,0.6096 z m 0,-4.1656 q 1.6764,0 2.9464,-0.3048 1.3208,-0.3048 2.1844,-1.27 0.8636,-1.016 1.3208,-2.9972 0.4572,-1.9812 0.4572,-5.2324 0,-3.2512 -0.4572,-5.1816 -0.4572,-1.9812 -1.3208,-2.9464 -0.8636,-0.9652 -2.1844,-1.27 -1.27,-0.3556 -2.9464,-0.3556 -1.7272,0 -3.048,0.3556 -1.27,0.3048 -2.1336,1.27 -0.8128,0.9652 -1.27,2.9464 -0.4064,1.9304 -0.4064,5.1816 0,3.2512 0.4064,5.2324 0.4572,1.9812 1.27,2.9972 0.8636,0.9652 2.1336,1.27 1.3208,0.3048 3.048,0.3048 z m 25.75561,3.9116 q -2.4892,0 -4.2164,-0.8636 -1.6764,-0.8636 -2.54,-2.7432 -0.8128,-1.9304 -0.8128,-5.1816 v -30.0228 h 5.08 v 29.3624 q 0,2.1336 0.4064,3.302 0.4572,1.1176 1.2192,1.5748 0.8128,0.4572 1.8796,0.6096 l 2.54,0.3048 v 3.6576 z m 14.83356,-0.0508 -9.8552,-27.178 h 5.2324 l 7.6708,22.4536 7.8232,-22.4536 h 5.2324 l -10.2108,27.178 z m 30.22599,0.3048 q -4.318,0 -6.9088,-1.27 -2.54,-1.27 -3.6576,-4.2672 -1.0668,-3.048 -1.0668,-8.382 0,-5.4356 1.0668,-8.4328 1.1176,-3.048 3.6576,-4.2672 2.54,-1.2192 6.858,-1.2192 3.7592,0 6.0452,0.8128 2.3368,0.762 3.4036,2.794 1.1176,1.9812 1.1176,5.5372 0,2.4892 -1.016,3.9624 -0.9652,1.4732 -2.794,2.1336 -1.778,0.6604 -4.2672,0.6604 h -8.9916 q 0.0508,2.9464 0.6604,4.7244 0.6604,1.7272 2.286,2.54 1.6764,0.762 4.8768,0.762 h 8.4836 v 3.048 q -2.1844,0.3048 -4.4704,0.5588 -2.286,0.3048 -5.2832,0.3048 z m -6.604,-15.1384 h 8.5852 q 2.032,0 2.9972,-0.762 0.9652,-0.762 0.9652,-2.794 0,-2.032 -0.6096,-3.2004 -0.5588,-1.1684 -1.8796,-1.6764 -1.3208,-0.508 -3.5052,-0.508 -2.4892,0 -3.9624,0.762 -1.4224,0.762 -2.032,2.6924 -0.5588,1.9304 -0.5588,5.4864 z"
         id="path16" /></g></g></svg>
